<svg width="26" height="26" viewBox="0 0 26 26" fill="none" xmlns="http://www.w3.org/2000/svg">
<path d="M12.873 0.421875C19.7443 0.420486 25.3192 6.01592 25.3193 12.9219V21.4473C25.3193 22.5035 24.9136 23.4606 24.249 24.167L24.248 24.168C23.5258 24.9402 22.5011 25.4189 21.3652 25.4189H4.37598C2.19545 25.4189 0.421875 23.6433 0.421875 21.4482V12.9238C0.421875 6.01752 5.99777 0.421977 12.873 0.421875Z" fill="black" stroke="url(#paint0_linear_5456_8368)" style="fill:black;fill-opacity:1;" stroke-width="0.843974"/>
<mask id="path-2-inside-1_5456_8368" fill="white">
<path d="M11.8777 12.5106C11.8777 11.9495 11.7672 11.3939 11.5524 10.8755C11.3377 10.3571 11.023 9.88604 10.6262 9.48928C10.2294 9.09251 9.75841 8.77777 9.24 8.56304C8.7216 8.34831 8.16598 8.23779 7.60486 8.23779C7.04375 8.23779 6.48812 8.34831 5.96972 8.56304C5.45132 8.77777 4.98028 9.09251 4.58351 9.48928C4.18675 9.88605 3.87201 10.3571 3.65728 10.8755C3.44255 11.3939 3.33203 11.9495 3.33203 12.5106L4.95103 12.5106C4.95103 12.1621 5.01967 11.817 5.15304 11.495C5.28641 11.1731 5.48189 10.8805 5.72832 10.6341C5.97475 10.3877 6.26731 10.1922 6.58928 10.0588C6.91126 9.92544 7.25636 9.85679 7.60486 9.85679C7.95337 9.85679 8.29846 9.92544 8.62044 10.0588C8.94242 10.1922 9.23497 10.3877 9.4814 10.6341C9.72783 10.8805 9.92331 11.1731 10.0567 11.495C10.19 11.817 10.2587 12.1621 10.2587 12.5106H11.8777Z"/>
</mask>
<path d="M11.8777 12.5106C11.8777 11.9495 11.7672 11.3939 11.5524 10.8755C11.3377 10.3571 11.023 9.88604 10.6262 9.48928C10.2294 9.09251 9.75841 8.77777 9.24 8.56304C8.7216 8.34831 8.16598 8.23779 7.60486 8.23779C7.04375 8.23779 6.48812 8.34831 5.96972 8.56304C5.45132 8.77777 4.98028 9.09251 4.58351 9.48928C4.18675 9.88605 3.87201 10.3571 3.65728 10.8755C3.44255 11.3939 3.33203 11.9495 3.33203 12.5106L4.95103 12.5106C4.95103 12.1621 5.01967 11.817 5.15304 11.495C5.28641 11.1731 5.48189 10.8805 5.72832 10.6341C5.97475 10.3877 6.26731 10.1922 6.58928 10.0588C6.91126 9.92544 7.25636 9.85679 7.60486 9.85679C7.95337 9.85679 8.29846 9.92544 8.62044 10.0588C8.94242 10.1922 9.23497 10.3877 9.4814 10.6341C9.72783 10.8805 9.92331 11.1731 10.0567 11.495C10.19 11.817 10.2587 12.1621 10.2587 12.5106H11.8777Z" fill="white" stroke="white" style="fill:white;fill-opacity:1;stroke:white;stroke-opacity:1;" stroke-width="1.68795" mask="url(#path-2-inside-1_5456_8368)"/>
<mask id="path-3-inside-2_5456_8368" fill="white">
<path d="M22.1316 12.5106C22.1316 11.3774 21.6814 10.2906 20.8801 9.48928C20.0788 8.68796 18.992 8.23779 17.8588 8.23779C16.7255 8.23779 15.6387 8.68796 14.8374 9.48928C14.0361 10.2906 13.5859 11.3774 13.5859 12.5106H15.1705C15.1705 11.7976 15.4537 11.1139 15.9579 10.6097C16.462 10.1056 17.1458 9.82233 17.8588 9.82233C18.5717 9.82233 19.2555 10.1056 19.7597 10.6097C20.2638 11.1139 20.5471 11.7976 20.5471 12.5106H22.1316Z"/>
</mask>
<path d="M22.1316 12.5106C22.1316 11.3774 21.6814 10.2906 20.8801 9.48928C20.0788 8.68796 18.992 8.23779 17.8588 8.23779C16.7255 8.23779 15.6387 8.68796 14.8374 9.48928C14.0361 10.2906 13.5859 11.3774 13.5859 12.5106H15.1705C15.1705 11.7976 15.4537 11.1139 15.9579 10.6097C16.462 10.1056 17.1458 9.82233 17.8588 9.82233C18.5717 9.82233 19.2555 10.1056 19.7597 10.6097C20.2638 11.1139 20.5471 11.7976 20.5471 12.5106H22.1316Z" fill="white" stroke="white" style="fill:white;fill-opacity:1;stroke:white;stroke-opacity:1;" stroke-width="1.68795" mask="url(#path-3-inside-2_5456_8368)"/>
<defs>
<linearGradient id="paint0_linear_5456_8368" x1="12.8706" y1="0" x2="12.8706" y2="25.8413" gradientUnits="userSpaceOnUse">
<stop stop-color="#E8804C" style="stop-color:#E8804C;stop-color:color(display-p3 0.9098 0.5020 0.2980);stop-opacity:1;"/>
<stop offset="0.5" stop-color="#E84C85" style="stop-color:#E84C85;stop-color:color(display-p3 0.9098 0.2980 0.5224);stop-opacity:1;"/>
<stop offset="0.75" stop-color="#A64EBA" style="stop-color:#A64EBA;stop-color:color(display-p3 0.6521 0.3044 0.7303);stop-opacity:1;"/>
<stop offset="1" stop-color="#654FEF" style="stop-color:#654FEF;stop-color:color(display-p3 0.3944 0.3107 0.9382);stop-opacity:1;"/>
</linearGradient>
</defs>
</svg>
